<?xml version="1.0" standalone="no"?>
<!DOCTYPE svg PUBLIC "-//W3C//DTD SVG 20010904//EN"
 "http://www.w3.org/TR/2001/REC-SVG-20010904/DTD/svg10.dtd">
<svg version="1.0" xmlns="http://www.w3.org/2000/svg"
 width="3375.000000pt" height="4219.000000pt" viewBox="0 0 3375.000000 4219.000000"
 preserveAspectRatio="xMidYMid meet">

<g transform="translate(0.000000,4219.000000) scale(0.100000,-0.100000)"
fill="#000000" stroke="none">
<path d="M16534 35838 c-109 -123 -329 -367 -489 -543 -1096 -1207 -1451
-1663 -1969 -2528 -171 -286 -268 -458 -673 -1197 -372 -678 -407 -739 -418
-740 -6 0 -91 38 -190 84 -1273 595 -2758 967 -4410 1106 -516 43 -950 63
-1602 76 l-351 7 -6 -44 c-8 -59 -33 -390 -51 -684 -88 -1415 -38 -2571 156
-3635 152 -831 414 -1642 765 -2369 52 -107 93 -195 92 -197 -2 -1 -46 -20
-98 -42 -267 -113 -741 -347 -1025 -505 -1133 -630 -2144 -1402 -3353 -2561
-278 -267 -902 -900 -902 -917 0 -20 590 -686 895 -1009 800 -849 1537 -1495
2314 -2029 623 -428 1405 -843 1993 -1055 l77 -28 -21 -52 c-149 -373 -229
-597 -328 -911 -351 -1120 -539 -2258 -610 -3700 -32 -649 -30 -1846 4 -1969
47 -171 115 -240 267 -272 84 -18 77 -18 524 31 171 19 569 60 885 90 1599
154 2259 276 3185 588 230 78 581 204 1120 402 380 140 629 225 635 217 4 -4
28 -70 55 -147 146 -430 364 -935 592 -1375 555 -1069 1326 -2080 2223 -2915
495 -460 687 -610 850 -665 84 -28 207 -25 292 9 153 60 348 219 798 652 1124
1080 2038 2387 2745 3924 75 164 220 494 246 562 8 22 9 22 89 -23 141 -77
519 -267 685 -343 1272 -582 2515 -892 3945 -983 412 -27 1209 -13 1721 28
l76 7 7 206 c14 460 19 2035 7 2346 -66 1719 -326 2906 -892 4074 -55 112 -98
205 -97 207 2 1 59 24 128 52 415 165 1034 464 1420 687 1233 710 2292 1577
3421 2800 77 84 354 396 426 481 l52 61 -257 259 c-142 142 -440 448 -662 679
-1126 1169 -1685 1677 -2380 2162 -604 421 -1270 742 -1917 923 -81 23 -152
45 -156 49 -4 4 29 102 74 217 444 1144 701 2174 828 3319 86 777 99 1662 35
2495 -25 333 -93 942 -106 956 -4 3 -66 12 -140 20 -896 94 -1914 -36 -3243
-415 -799 -228 -1813 -575 -2860 -980 -154 -59 -232 -85 -237 -77 -3 6 -38 97
-78 201 -717 1904 -1913 3505 -3778 5053 -67 56 -124 102 -126 102 -3 0 -93
-100 -202 -222z m403 -694 c648 -519 1279 -1169 1767 -1819 813 -1082 1388
-2302 1730 -3670 127 -509 156 -664 156 -851 0 -343 -157 -542 -582 -736 -184
-85 -610 -240 -623 -227 -2 3 -25 105 -50 228 -304 1479 -903 2686 -1813 3658
-211 225 -626 604 -718 656 -7 4 -59 -56 -130 -151 -65 -86 -233 -305 -374
-487 -671 -864 -883 -1186 -1131 -1718 -148 -315 -245 -572 -474 -1257 -195
-583 -295 -872 -305 -884 -12 -13 -362 125 -557 219 -217 105 -298 157 -399
259 -140 140 -187 271 -187 516 -1 230 42 475 178 1025 303 1228 777 2291
1423 3195 268 374 483 628 887 1044 334 344 424 440 694 736 329 360 346 378
355 379 5 1 74 -51 153 -115z m9786 -3521 c4 -54 14 -197 22 -318 53 -799 53
-1658 -1 -2355 -90 -1177 -325 -2253 -709 -3255 -42 -110 -79 -208 -82 -217
-3 -10 -12 -18 -20 -18 -21 0 -168 34 -838 196 -746 180 -675 161 -675 185 0
11 45 295 100 632 55 337 192 1175 304 1862 114 697 201 1254 196 1259 -14 14
-637 0 -795 -18 -616 -69 -1106 -189 -1940 -472 -486 -166 -1056 -354 -1070
-354 -15 0 -90 133 -104 185 -6 22 -22 95 -36 163 -14 68 -57 261 -97 430
-105 455 -105 552 0 664 73 78 182 140 477 273 83 37 286 130 451 206 615 283
978 411 1589 563 664 165 1328 270 2680 426 143 17 307 36 365 44 58 8 121 14
141 15 l36 1 6 -97z m-9736 -120 c271 -289 397 -437 588 -693 427 -572 762
-1207 994 -1885 93 -272 156 -486 187 -635 25 -122 28 -156 28 -345 1 -238
-12 -311 -85 -500 -88 -227 -193 -371 -539 -736 -348 -367 -520 -609 -1030
-1449 -182 -300 -355 -576 -375 -598 -8 -9 -19 26 -43 148 -77 383 -205 739
-401 1115 -232 444 -523 840 -956 1300 -190 202 -221 248 -267 410 -46 163
-23 411 83 895 164 745 453 1401 931 2113 216 321 728 987 759 987 3 0 60 -57
126 -127z m-9662 42 c1210 -74 1946 -149 2615 -266 902 -157 1624 -371 2352
-697 346 -155 484 -269 557 -462 22 -57 25 -81 25 -190 0 -108 -6 -152 -42
-325 -42 -204 -55 -291 -93 -635 -12 -107 -22 -196 -24 -198 -1 -2 -375 92
-831 207 -456 115 -1287 325 -1847 466 -1014 255 -1018 256 -1045 238 -126
-84 -182 -129 -182 -147 0 -19 215 -1448 464 -3086 62 -410 112 -746 111 -748
-1 -1 -207 -41 -456 -88 -250 -46 -584 -109 -743 -140 -159 -30 -290 -54 -291
-52 -21 26 -191 349 -257 490 -431 921 -634 1843 -710 3233 -14 264 -17 1604
-4 2108 l8 318 72 -6 c39 -3 184 -12 321 -20z m17151 -2377 c-5 -33 -199
-1074 -475 -2553 l-148 -790 -629 -112 c-346 -62 -818 -146 -1049 -187 -231
-41 -588 -105 -793 -142 -205 -36 -375 -65 -377 -63 -6 7 90 1388 131 1879 43
521 63 688 86 744 50 118 165 263 240 302 81 42 864 295 1808 584 272 83 653
201 845 260 193 60 354 109 359 109 4 1 6 -14 2 -31z m-14816 -188 c609 -38
1100 -165 1955 -508 491 -196 764 -304 864 -338 46 -16 85 -33 87 -39 2 -5 56
-577 119 -1270 64 -693 120 -1296 124 -1340 5 -44 7 -82 5 -84 -5 -6 -1826
255 -2317 333 -189 30 -286 50 -320 66 -59 28 -157 121 -186 177 -21 42 -144
551 -301 1248 -196 874 -388 1751 -383 1758 6 10 157 9 353 -3z m10993 -1297
c83 -491 68 -958 -43 -1420 -163 -674 -510 -1304 -1177 -2135 -149 -186 -681
-828 -715 -863 -12 -13 -17 -15 -14 -5 7 20 312 1041 425 1420 148 502 250
865 270 968 28 139 40 284 51 648 17 539 43 706 138 889 82 156 245 281 522
401 107 46 494 192 511 193 13 1 19 -20 32 -96z m-7088 -59 c400 -120 571
-215 676 -377 41 -63 82 -177 98 -272 6 -33 13 -73 16 -90 3 -16 10 -246 14
-510 6 -328 14 -521 25 -610 86 -703 335 -1399 812 -2272 52 -94 94 -174 94
-178 0 -19 -416 335 -607 516 -841 799 -1321 1614 -1482 2519 -69 387 -79 849
-25 1254 8 61 14 111 14 112 0 4 260 -61 365 -92z m5358 -1154 c1 -534 -58
-987 -205 -1575 -204 -816 -555 -1598 -930 -2071 -97 -123 -271 -296 -366
-365 -79 -56 -249 -146 -258 -136 -3 2 -9 80 -15 173 -19 295 5 751 56 1112
194 1348 812 2534 1650 3166 l49 37 9 -23 c5 -13 10 -156 10 -318z m-3831 145
c716 -847 1158 -1734 1308 -2628 48 -291 55 -384 54 -767 0 -301 -4 -382 -22
-535 -12 -99 -25 -200 -30 -224 l-7 -45 -16 25 c-38 57 -523 956 -640 1184
-467 913 -691 1587 -765 2302 -18 174 -24 591 -10 737 9 103 -6 108 128 -49z
m-3857 -1399 c1126 -138 2201 -736 3344 -1861 424 -418 674 -696 1193 -1328
26 -32 48 -62 48 -66 0 -8 -67 -31 -90 -31 -7 0 -88 74 -181 165 -821 799
-1853 1331 -3059 1576 -300 61 -579 102 -925 134 -292 28 -424 57 -583 131
-192 88 -359 262 -457 478 -46 102 -94 254 -164 527 -33 129 -63 242 -66 251
-7 17 24 23 210 39 140 12 584 2 730 -15z m-1663 -70 c109 -52 201 -182 292
-413 19 -50 70 -190 111 -310 42 -120 108 -306 147 -413 38 -107 72 -203 75
-212 4 -13 -4 -18 -39 -22 -640 -84 -1088 -198 -1575 -400 -748 -310 -1465
-814 -2068 -1452 -260 -276 -373 -421 -417 -537 -94 -247 3 -422 508 -917 691
-676 1229 -1081 1819 -1370 442 -216 870 -348 1310 -405 152 -19 216 -38 342
-97 l92 -43 -103 -245 c-197 -468 -341 -767 -447 -930 -212 -323 -418 -367
-1014 -216 -282 71 -655 179 -870 250 -1233 413 -2363 1102 -3525 2150 -272
245 -813 797 -1091 1110 -145 165 -297 336 -336 380 l-73 81 303 303 c1606
1612 2871 2548 4227 3125 379 161 711 272 1335 446 531 148 644 171 815 167
112 -2 131 -5 182 -30z m13889 -14 l36 -7 -34 -150 c-75 -326 -191 -612 -323
-797 -76 -107 -224 -251 -321 -314 -268 -174 -532 -244 -1034 -274 -212 -13
-307 -23 -510 -55 -979 -157 -1912 -631 -2654 -1349 -108 -106 -108 -104 -11
99 412 862 1077 1616 1850 2098 703 439 1492 689 2355 746 151 10 598 12 646
3z m964 -22 c859 -46 1688 -283 2590 -740 1277 -647 2568 -1701 3794 -3095
102 -116 191 -218 200 -228 14 -17 -5 -38 -260 -293 -1364 -1369 -2449 -2209
-3609 -2793 -931 -470 -1844 -742 -2843 -850 -159 -17 -159 -17 -167 3 -4 12
-125 311 -268 666 -143 355 -269 668 -280 696 l-20 51 131 27 c1213 249 2233
787 3169 1672 253 240 603 619 709 768 193 273 183 481 -38 727 -62 70 -150
153 -408 385 -253 227 -620 509 -909 699 -819 538 -1630 817 -2559 880 -85 6
-98 9 -94 24 3 12 347 915 528 1389 8 20 15 22 76 22 38 0 154 -5 258 -10z
m-12805 -1806 c1189 -97 2270 -498 3265 -1213 204 -146 703 -556 692 -568 -7
-6 -167 -32 -317 -50 -227 -27 -709 -24 -935 6 -314 42 -579 102 -854 196
-805 274 -1545 811 -2109 1533 -40 51 -75 99 -79 108 -6 16 -7 16 337 -12z
m-1282 -68 c125 -41 236 -90 352 -159 215 -126 730 -527 2138 -1660 l342 -276
-167 -127 c-93 -71 -265 -203 -383 -294 -118 -91 -300 -231 -405 -311 -104
-80 -270 -207 -367 -281 -496 -381 -1229 -925 -1277 -949 -144 -70 -324 -77
-591 -24 -873 176 -1644 534 -2365 1098 -175 137 -227 182 -444 382 -161 147
-534 530 -568 583 -15 21 -12 26 73 118 106 116 474 472 634 614 436 387 916
716 1332 914 443 212 802 319 1318 395 116 17 284 7 378 -23z m12152 -23 c0
-13 -85 -139 -181 -270 -383 -518 -864 -896 -1464 -1151 -475 -202 -877 -290
-1870 -407 -214 -25 -484 -59 -600 -76 -115 -16 -219 -29 -230 -29 -24 0 16
42 210 220 600 549 1256 946 2032 1231 557 203 1187 353 1993 473 52 7 98 14
103 15 4 0 7 -2 7 -6z m1406 -63 c238 -19 469 -71 773 -175 315 -107 584 -234
907 -427 431 -257 806 -554 1238 -979 l230 -226 -78 -114 c-167 -243 -354
-468 -566 -679 -671 -671 -1499 -1116 -2655 -1427 -148 -40 -183 -46 -275 -46
-116 -2 -219 19 -285 56 -40 22 -58 43 -250 278 -127 155 -448 481 -615 623
-450 385 -1034 747 -1652 1026 -65 29 -118 56 -118 60 0 4 42 24 93 45 439
181 949 471 1340 762 329 245 708 596 995 921 74 84 154 166 178 183 87 60
243 104 419 118 146 12 179 12 321 1z m-7026 -1380 c117 -12 282 -62 368 -112
118 -67 166 -133 216 -298 37 -122 53 -241 71 -509 9 -130 20 -264 24 -299 7
-58 6 -63 -13 -67 -12 -2 -138 -16 -281 -30 -143 -14 -405 -41 -583 -60 -363
-39 -412 -42 -412 -21 0 8 -7 74 -15 148 -61 553 -30 818 119 1015 77 102 225
199 349 229 28 7 53 13 53 13 1 1 48 -4 104 -9z m-1757 -944 c147 -24 300 -63
413 -107 151 -59 147 -50 74 -149 -34 -47 -121 -144 -194 -215 -630 -626
-1951 -1189 -3156 -1345 -241 -31 -615 -38 -820 -16 -85 10 -159 21 -163 25
-20 19 215 300 415 498 268 265 522 462 853 660 584 350 1181 567 1786 648
164 22 211 24 439 21 166 -3 289 -10 353 -20z m4427 -10 c437 -54 846 -177
1265 -381 562 -274 1080 -686 1439 -1145 91 -116 246 -334 246 -345 0 -13
-576 3 -725 19 -440 50 -876 157 -1300 321 -636 245 -1335 660 -2120 1259 -93
71 -172 130 -174 132 -12 10 218 76 379 108 206 42 386 56 645 51 127 -3 282
-11 345 -19z m-2080 -1076 c58 -96 218 -350 355 -565 404 -634 554 -890 730
-1247 261 -528 399 -973 461 -1488 21 -174 33 -1040 14 -1040 -31 0 -332 264
-526 461 -912 931 -1327 2088 -1335 3727 -1 161 0 294 2 297 6 5 161 33 178
31 8 0 62 -80 121 -176z m785 62 c888 -363 1216 -497 1615 -659 1005 -409
1570 -633 1655 -658 120 -35 237 -36 400 -4 100 19 151 23 305 23 203 -1 262
-10 412 -64 312 -113 561 -410 751 -895 62 -158 131 -364 125 -370 -8 -9 -277
-44 -443 -59 -390 -34 -711 -30 -1065 15 -1410 177 -2684 1028 -3855 2574 -71
94 -133 176 -139 184 -9 12 -8 13 4 9 8 -3 114 -46 235 -96z m-1742 -179 c32
-252 34 -953 3 -1233 -37 -335 -115 -710 -206 -989 -234 -719 -653 -1369
-1239 -1918 -136 -127 -156 -142 -165 -126 -14 26 -12 566 3 738 44 501 144
991 295 1450 99 299 187 518 317 784 209 429 415 743 696 1063 84 97 269 278
284 278 3 0 9 -21 12 -47z m-1289 -95 c-4 -7 -54 -78 -110 -158 -423 -595
-922 -1119 -1412 -1483 -950 -704 -2055 -989 -3242 -836 -161 20 -380 56 -386
62 -6 6 81 244 149 407 258 618 372 779 614 867 133 48 214 55 753 63 424 6
531 11 670 29 537 69 1013 214 1830 559 422 178 915 394 1015 445 116 59 131
65 119 45z m207 -430 c-11 -29 -203 -430 -356 -743 -232 -477 -397 -859 -504
-1168 -149 -433 -212 -914 -180 -1382 26 -368 12 -521 -61 -681 -104 -231
-293 -373 -690 -522 -74 -28 -242 -91 -373 -141 -132 -50 -244 -91 -249 -91
-14 0 -3 490 17 760 49 653 170 1131 392 1550 139 261 261 426 526 713 227
244 369 412 842 987 255 310 628 740 642 740 1 0 -1 -10 -6 -22z m3909 -1215
c164 -145 461 -448 581 -593 596 -718 878 -1412 915 -2255 7 -179 -17 -604
-37 -636 -10 -17 -108 6 -297 68 -332 109 -544 240 -678 416 -60 80 -145 257
-179 372 -40 139 -71 324 -105 625 -54 477 -128 920 -265 1590 -29 142 -105
544 -105 556 0 4 10 -1 23 -12 12 -11 78 -70 147 -131z m-2465 -379 c172 -628
446 -1147 888 -1679 124 -149 542 -567 697 -696 63 -53 144 -121 180 -151 124
-103 196 -251 194 -398 -2 -177 -226 -995 -395 -1448 -298 -797 -665 -1388
-1184 -1908 -157 -157 -412 -384 -432 -384 -11 0 -176 186 -323 365 -644 786
-1094 1609 -1334 2443 -102 354 -191 808 -183 939 8 144 129 335 315 495 485
418 808 832 1087 1387 158 317 318 729 425 1099 12 41 23 72 26 70 2 -3 20
-63 39 -134z m9004 -846 c704 -1468 961 -3038 902 -5503 -7 -275 -14 -502 -17
-504 -7 -8 -798 18 -1049 34 -844 54 -1555 160 -2220 330 -805 206 -1505 497
-2180 905 -132 80 -272 169 -322 205 -3 1 238 1289 241 1292 3 3 588 -116
2550 -516 594 -121 1082 -218 1085 -215 11 11 21 423 16 639 -24 925 -160
1721 -505 2953 -46 161 -81 295 -78 297 2 2 91 18 198 34 397 61 1284 205
1298 210 2 0 39 -72 81 -161z m-17745 96 c176 -30 465 -80 641 -110 339 -58
478 -83 480 -87 1 -1 -92 -828 -206 -1837 -114 -1009 -208 -1851 -208 -1870 0
-32 7 -41 98 -112 55 -43 104 -78 110 -78 7 0 357 81 779 181 422 99 947 223
1167 274 678 159 1469 345 1486 351 14 4 19 -7 27 -58 6 -35 61 -356 122 -714
60 -358 110 -655 110 -661 0 -32 -497 -287 -860 -441 -1193 -505 -2689 -847
-4034 -923 -210 -12 -790 -6 -906 9 l-55 7 -6 150 c-10 247 -10 1332 1 1600
55 1379 241 2494 590 3535 124 371 310 840 332 840 6 0 155 -25 332 -56z
m13811 -53 c2130 -271 1888 -238 1893 -266 6 -32 423 -2161 528 -2689 52 -263
93 -480 91 -482 -3 -3 -1387 315 -1787 411 -129 31 -336 80 -460 110 -394 94
-672 165 -701 180 -42 22 -95 98 -129 185 -26 68 -35 123 -70 407 -65 535
-250 2194 -250 2240 0 7 6 13 13 13 6 0 399 -49 872 -109z m-9101 -8 c-2 -16
-41 -298 -84 -628 -144 -1077 -240 -1734 -264 -1803 -39 -110 -144 -222 -230
-247 -527 -151 -1285 -358 -2386 -653 -349 -94 -406 -107 -411 -93 -25 63 -53
536 -44 741 21 509 97 957 269 1575 102 366 245 827 263 848 44 49 223 111
398 137 92 13 675 53 1245 85 250 14 599 34 775 44 176 10 355 19 397 20 l78
1 -6 -27z m1606 -2280 c57 -281 201 -805 311 -1128 329 -971 770 -1766 1377
-2482 453 -537 691 -623 1045 -380 144 99 445 401 687 692 354 424 687 964
920 1491 202 456 301 759 526 1611 l59 223 44 0 c37 0 77 -17 230 -96 385
-200 604 -330 739 -439 288 -234 335 -466 202 -1010 -53 -221 -226 -823 -298
-1040 -551 -1659 -1558 -3199 -2986 -4566 -232 -222 -325 -293 -420 -323 -123
-39 -252 3 -401 130 -168 144 -682 673 -946 974 -1279 1461 -2081 3032 -2439
4775 -21 105 -46 242 -54 305 -30 222 -67 613 -58 622 8 8 1431 696 1444 697
4 1 12 -25 18 -56z"/>
</g>
</svg>
