<?xml version="1.0" standalone="no"?>
<!DOCTYPE svg PUBLIC "-//W3C//DTD SVG 20010904//EN"
 "http://www.w3.org/TR/2001/REC-SVG-20010904/DTD/svg10.dtd">
<svg version="1.0" xmlns="http://www.w3.org/2000/svg"
 width="3375.000000pt" height="4219.000000pt" viewBox="0 0 3375.000000 4219.000000"
 preserveAspectRatio="xMidYMid meet">

<g transform="translate(0.000000,4219.000000) scale(0.100000,-0.100000)"
fill="#000000" stroke="none">
<path d="M16622 30619 c-284 -15 -651 -71 -927 -140 -1116 -280 -2040 -901
-2673 -1800 -492 -697 -789 -1568 -869 -2542 -35 -424 16 -950 139 -1432 173
-680 500 -1317 963 -1875 107 -128 395 -421 530 -537 371 -321 798 -591 1222
-772 812 -347 1662 -470 2478 -360 383 51 768 152 1129 296 943 374 1756 1035
2309 1878 477 728 747 1612 747 2445 0 147 -30 513 -60 725 -135 960 -493
1801 -1056 2475 -115 138 -370 396 -514 520 -913 783 -2149 1188 -3418 1119z"/>
<path d="M7325 26648 c-328 -28 -703 -117 -1025 -241 -141 -55 -409 -190 -549
-277 -924 -574 -1482 -1548 -1572 -2744 -21 -279 13 -674 85 -976 299 -1261
1276 -2257 2525 -2575 292 -75 536 -105 851 -105 235 0 367 10 565 41 867 139
1672 621 2204 1319 385 504 607 1040 697 1681 24 170 25 548 1 751 -86 724
-307 1309 -686 1812 -368 488 -871 863 -1461 1089 -304 116 -672 199 -1007
227 -141 12 -488 11 -628 -2z"/>
<path d="M25840 26649 c-504 -44 -1033 -206 -1450 -441 -853 -482 -1428 -1289
-1629 -2284 -55 -275 -81 -506 -81 -729 1 -1132 563 -2199 1500 -2849 499
-346 1071 -554 1670 -607 198 -17 616 -7 795 21 544 82 1042 277 1480 579 631
435 1110 1074 1344 1794 112 346 166 674 165 1012 -1 406 -71 825 -204 1225
-122 366 -281 671 -509 975 -133 178 -414 461 -586 591 -322 244 -635 410
-1015 539 -235 80 -584 151 -855 174 -139 12 -486 12 -625 0z"/>
<path d="M16485 20124 c-411 -31 -662 -59 -870 -95 -976 -169 -1856 -496
-2700 -1002 -877 -526 -1657 -1230 -2273 -2052 -823 -1098 -1325 -2351 -1471
-3670 -31 -279 -44 -551 -39 -853 l4 -277 32 -68 c59 -126 182 -230 321 -271
50 -15 704 -16 7390 -16 6443 0 7345 2 7406 15 153 33 285 134 349 268 98 207
108 481 35 962 -67 445 -79 531 -79 559 0 65 -116 583 -186 830 -439 1554
-1343 2923 -2604 3946 -1100 891 -2437 1470 -3835 1660 -361 49 -552 61 -1000
65 -236 1 -452 1 -480 -1z"/>
<path d="M7330 19340 c-695 -56 -1367 -232 -2000 -525 -688 -318 -1372 -819
-1864 -1364 -830 -920 -1304 -2007 -1396 -3200 -13 -176 -13 -511 1 -587 38
-210 226 -393 435 -424 45 -6 1037 -10 2831 -10 l2761 0 7 78 c146 1796 851
3512 2016 4907 64 77 166 194 227 261 l111 121 -97 55 c-548 314 -1134 524
-1769 633 -261 45 -421 57 -793 60 -201 2 -412 -1 -470 -5z"/>
<path d="M25960 19344 c-739 -38 -1343 -172 -1985 -439 -159 -66 -548 -259
-594 -294 l-24 -18 74 -80 c339 -363 762 -927 1036 -1383 620 -1031 1017
-2150 1182 -3330 20 -142 61 -512 61 -551 0 -19 34 -19 2763 -19 1805 0 2786
4 2832 10 109 16 217 73 297 158 72 76 109 143 134 242 15 58 16 91 5 321 -38
857 -227 1589 -601 2329 -436 862 -1117 1619 -1940 2155 -766 500 -1646 802
-2560 879 -177 15 -560 26 -680 20z"/>
</g>
</svg>
