<?xml version="1.0" standalone="no"?>
<!DOCTYPE svg PUBLIC "-//W3C//DTD SVG 20010904//EN"
 "http://www.w3.org/TR/2001/REC-SVG-20010904/DTD/svg10.dtd">
<svg version="1.0" xmlns="http://www.w3.org/2000/svg"
 width="3375.000000pt" height="4219.000000pt" viewBox="0 0 3375.000000 4219.000000"
 preserveAspectRatio="xMidYMid meet">

<g transform="translate(0.000000,4219.000000) scale(0.100000,-0.100000)"
fill="#000000" stroke="none">
<path d="M16815 29490 c-65 -14 -93 -27 -250 -121 -254 -152 -534 -357 -795
-582 -262 -226 -731 -721 -909 -959 -28 -37 -48 -55 -55 -50 -7 4 -95 67 -196
141 -852 622 -1608 1006 -2135 1087 -206 32 -314 8 -399 -87 -117 -132 -509
-849 -711 -1304 -193 -433 -378 -953 -466 -1307 -12 -49 -25 -88 -29 -88 -5 0
-48 15 -97 34 -462 176 -1085 337 -1623 420 -295 46 -692 86 -846 86 -81 0
-97 -3 -152 -30 -112 -57 -150 -120 -181 -305 -76 -454 -107 -939 -98 -1565 6
-408 12 -525 42 -865 60 -660 194 -1416 356 -1998 23 -81 40 -149 38 -151 -2
-2 -80 7 -174 20 -459 62 -769 84 -1220 84 -446 0 -771 -22 -1175 -81 -764
-111 -1467 -328 -2135 -659 -377 -186 -615 -328 -977 -582 -192 -135 -233
-192 -233 -328 0 -62 5 -86 28 -132 15 -31 44 -71 63 -88 19 -17 116 -71 215
-121 545 -272 973 -546 1389 -888 212 -174 360 -339 750 -835 930 -1186 1305
-1626 1890 -2220 671 -681 1292 -1201 1990 -1666 1214 -808 2427 -1276 3950
-1524 1220 -199 2684 -206 3940 -19 135 20 254 36 265 36 11 0 115 -14 230
-31 908 -137 1922 -174 2905 -107 1296 90 2515 377 3567 841 181 80 526 253
751 378 1277 708 2472 1741 3672 3176 200 239 596 733 841 1050 343 442 551
685 707 827 372 336 894 679 1491 977 104 53 206 109 225 126 91 80 119 237
63 352 -33 67 -72 103 -238 220 -1114 779 -2339 1197 -3774 1288 -205 13 -750
13 -970 0 -243 -15 -823 -77 -887 -96 -13 -4 -18 0 -18 13 0 10 27 124 60 253
355 1400 465 2853 309 4100 -47 379 -78 454 -215 521 l-65 32 -147 -6 c-377
-15 -915 -92 -1385 -198 -296 -67 -720 -193 -1010 -301 -59 -22 -110 -38 -113
-36 -2 3 -31 99 -64 214 -149 528 -335 1004 -600 1539 -204 411 -450 845 -535
942 -58 68 -139 103 -235 103 -216 0 -554 -95 -911 -255 -417 -187 -1059 -586
-1561 -968 l-35 -27 -99 122 c-312 389 -746 820 -1111 1104 -243 190 -616 434
-723 475 -58 22 -134 30 -185 19z m205 -744 c276 -183 593 -447 871 -725 1010
-1011 1661 -2310 1929 -3856 l30 -169 -44 -56 c-24 -30 -82 -105 -128 -167
l-85 -112 -155 207 c-253 338 -476 593 -762 877 -458 454 -954 844 -1456 1147
-226 136 -242 143 -345 143 -103 0 -117 -6 -344 -142 -845 -506 -1679 -1279
-2295 -2125 l-78 -107 -85 112 c-47 62 -102 132 -123 157 -20 25 -40 50 -43
56 -8 14 40 293 89 522 211 981 574 1832 1132 2646 418 610 1051 1235 1636
1615 l109 71 36 -22 c20 -12 70 -44 111 -72z m-4438 -392 c213 -67 447 -171
723 -321 196 -107 364 -211 626 -388 197 -133 529 -371 529 -379 0 -2 -40 -68
-89 -147 -423 -687 -765 -1539 -947 -2355 -21 -93 -40 -172 -43 -176 -4 -4
-67 49 -141 119 -273 255 -450 403 -716 599 -287 211 -615 417 -911 571 -90
46 -163 88 -163 91 0 17 54 227 90 351 175 606 466 1276 834 1918 65 116 85
143 103 143 12 0 59 -12 105 -26z m8803 -132 c112 -196 359 -686 450 -892 188
-429 336 -852 430 -1230 14 -58 28 -113 31 -122 4 -13 -14 -27 -78 -59 -581
-291 -1178 -713 -1698 -1202 -79 -75 -147 -133 -151 -129 -3 4 -20 75 -39 157
-143 659 -428 1430 -740 2006 -71 131 -245 428 -281 481 -11 14 -19 28 -19 31
0 7 224 172 407 299 418 292 823 529 1162 678 117 51 378 140 411 140 22 0 37
-20 115 -158z m-12590 -2122 c1208 -143 2313 -553 3240 -1202 616 -432 1172
-981 1638 -1618 58 -79 111 -153 117 -165 9 -17 1 -37 -51 -130 -392 -703
-675 -1533 -803 -2355 -106 -683 -119 -1427 -35 -2065 131 -1000 484 -1963
1056 -2880 164 -262 432 -634 626 -867 53 -65 94 -118 90 -118 -14 0 -396 251
-634 416 -337 233 -547 390 -912 682 -1092 873 -2017 1879 -2739 2977 -891
1355 -1484 2856 -1747 4421 -156 928 -197 1946 -110 2764 18 179 15 171 57
165 21 -3 114 -14 207 -25z m16409 -7 c3 -21 13 -110 21 -198 53 -581 45
-1334 -20 -1970 -170 -1641 -706 -3261 -1550 -4685 -1022 -1723 -2512 -3217
-4447 -4459 -70 -44 -130 -81 -133 -81 -3 0 30 44 75 98 123 147 355 458 474
634 725 1070 1127 2154 1252 3378 22 213 30 841 14 1098 -65 1077 -350 2096
-844 3011 -43 79 -83 152 -89 161 -8 15 3 37 66 126 266 379 639 808 953 1095
690 632 1407 1074 2250 1389 536 201 1056 326 1704 410 286 38 267 38 274 -7z
m-8240 -765 c343 -218 699 -488 986 -747 1574 -1421 2380 -3239 2337 -5271
-10 -438 -48 -764 -138 -1185 -258 -1196 -898 -2351 -1883 -3397 -247 -263
-617 -605 -880 -815 -67 -53 -141 -113 -166 -133 -47 -38 -185 -139 -284 -208
-32 -23 -64 -39 -70 -35 -48 28 -256 180 -405 298 -773 607 -1499 1405 -1984
2181 -526 841 -853 1730 -967 2629 -38 305 -45 425 -45 815 0 479 26 784 101
1207 175 991 570 1914 1178 2753 453 625 1100 1259 1745 1711 151 105 371 248
385 248 5 1 45 -22 90 -51z m-9669 -3998 c357 -19 690 -56 1029 -115 109 -19
200 -36 201 -37 1 -2 25 -70 54 -153 208 -587 522 -1269 847 -1846 335 -594
725 -1166 1175 -1724 1148 -1426 2662 -2679 4499 -3727 140 -80 354 -198 475
-262 120 -64 223 -120 228 -125 16 -16 -298 -37 -754 -51 -935 -30 -1953 58
-2809 241 -427 92 -749 179 -1102 298 -1400 475 -2703 1333 -3958 2607 -570
579 -916 984 -1805 2114 -578 735 -701 862 -1170 1214 -232 173 -645 440 -848
546 -26 14 -46 29 -44 34 6 19 327 200 552 311 591 292 1150 473 1810 585 280
47 481 68 890 93 126 8 558 6 730 -3z m19995 0 c812 -49 1556 -219 2255 -515
261 -110 881 -438 892 -471 2 -5 -23 -22 -54 -39 -195 -101 -626 -381 -858
-555 -468 -351 -616 -510 -1285 -1370 -1316 -1692 -2350 -2715 -3550 -3511
-817 -542 -1504 -870 -2379 -1135 -1206 -365 -2673 -516 -4096 -423 -93 6
-195 14 -225 18 l-55 7 130 69 c2431 1289 4307 2880 5629 4774 611 875 1132
1879 1476 2846 30 83 54 151 55 153 4 5 165 34 380 67 244 38 554 71 775 84
210 12 718 13 910 1z"/>
</g>
</svg>
