<?xml version="1.0" standalone="no"?>
<!DOCTYPE svg PUBLIC "-//W3C//DTD SVG 20010904//EN"
 "http://www.w3.org/TR/2001/REC-SVG-20010904/DTD/svg10.dtd">
<svg version="1.0" xmlns="http://www.w3.org/2000/svg"
 width="3375.000000pt" height="4219.000000pt" viewBox="0 0 3375.000000 4219.000000"
 preserveAspectRatio="xMidYMid meet">

<g transform="translate(0.000000,4219.000000) scale(0.100000,-0.100000)"
fill="#000000" stroke="none">
<path d="M16850 34353 c-95 -16 -197 -78 -238 -145 -11 -18 -57 -159 -102
-313 -245 -839 -358 -1142 -630 -1694 -207 -418 -342 -666 -900 -1646 -507
-890 -609 -1076 -804 -1465 -527 -1055 -765 -1830 -862 -2815 -21 -213 -29
-775 -15 -1020 51 -869 232 -1697 566 -2594 112 -301 283 -698 411 -953 l53
-106 -92 -6 c-51 -4 -272 -18 -492 -31 -220 -14 -427 -27 -460 -30 -33 -3
-217 -19 -410 -35 -1972 -170 -3668 -439 -5115 -811 -2145 -552 -3479 -1270
-3895 -2096 -142 -283 -170 -515 -106 -878 251 -1426 946 -2977 1919 -4285
862 -1159 1983 -2190 3290 -3027 1855 -1188 4128 -2025 6764 -2493 450 -79
1058 -170 1143 -170 128 0 1001 137 1530 240 1485 290 2834 690 4055 1205 402
169 998 451 1304 617 878 475 1519 897 2231 1469 1322 1063 2390 2378 3128
3854 377 755 671 1582 826 2325 80 385 85 419 86 570 0 102 -6 170 -18 230
-111 522 -535 990 -1282 1417 -795 455 -1962 860 -3403 1182 -1568 351 -3479
605 -5422 721 -190 11 -375 24 -411 28 l-66 7 99 210 c513 1082 806 2103 914
3188 21 210 30 846 15 1063 -55 783 -215 1490 -501 2204 -80 200 -254 576
-415 895 -216 428 -393 750 -845 1540 -586 1024 -885 1598 -1097 2105 -180
431 -306 822 -394 1220 -31 141 -50 193 -86 236 -57 67 -173 104 -273 87z
m337 -385 c-3 -8 -6 -5 -6 6 -1 11 2 17 5 13 3 -3 4 -12 1 -19z m-267 -1178
c51 -138 185 -449 296 -684 199 -421 432 -846 959 -1751 774 -1328 1084 -1954
1331 -2690 166 -496 252 -885 311 -1415 22 -197 25 -960 5 -1165 -63 -641
-171 -1153 -370 -1765 l-67 -205 -6 285 c-12 494 -86 905 -249 1385 -186 545
-408 995 -992 2010 -244 425 -343 606 -458 836 -225 448 -361 800 -445 1151
-62 257 -72 285 -116 333 -22 24 -55 50 -73 59 -150 71 -352 16 -435 -118 -11
-18 -46 -118 -76 -222 -234 -793 -363 -1077 -959 -2119 -523 -915 -742 -1360
-919 -1870 -189 -541 -275 -1015 -280 -1536 -1 -108 -5 -195 -9 -193 -9 6 -71
196 -132 404 -261 893 -366 1849 -291 2640 83 873 327 1682 786 2610 210 426
372 722 901 1650 393 689 548 973 762 1400 196 393 318 660 422 922 32 82 61
145 65 140 4 -4 22 -45 39 -92z m9 -5053 c122 -280 342 -694 666 -1252 371
-641 471 -823 629 -1146 270 -554 414 -994 491 -1509 22 -146 28 -223 32 -461
4 -181 1 -341 -6 -435 -98 -1225 -675 -2482 -1717 -3736 -74 -90 -139 -164
-144 -166 -10 -4 -140 147 -292 338 -934 1179 -1449 2347 -1559 3540 -16 173
-16 627 0 795 41 430 165 875 376 1346 133 296 287 585 650 1224 413 726 638
1150 765 1443 29 67 56 122 59 122 3 0 26 -46 50 -103z m-2204 -6859 c33 -56
61 -107 63 -113 2 -8 -93 -17 -305 -29 -1433 -82 -2875 -259 -4008 -492 -1095
-225 -2021 -527 -2555 -833 -509 -292 -773 -569 -867 -911 -28 -102 -25 -339
5 -445 28 -97 104 -246 175 -340 416 -562 1568 -1046 3328 -1399 1419 -285
3051 -458 4994 -528 474 -17 2218 -17 2675 0 1797 67 3164 202 4551 447 1601
284 2774 680 3405 1148 120 89 279 241 341 327 277 382 275 777 -6 1160 -24
33 -92 107 -151 163 -369 355 -1021 666 -1965 936 -1317 378 -3124 650 -5049
762 -204 11 -376 23 -383 24 -7 2 15 47 53 111 36 60 66 110 69 112 12 12
1457 -82 1900 -124 1663 -156 2894 -337 4130 -609 1236 -272 2202 -584 2961
-954 252 -123 386 -198 564 -316 400 -263 646 -527 726 -780 211 -663 -823
-1420 -2760 -2021 -3289 -1020 -8705 -1425 -13626 -1018 -1728 142 -3375 390
-4695 705 -1605 383 -2792 860 -3445 1383 -100 80 -253 235 -318 321 -66 89
-137 231 -157 315 -59 255 39 489 319 765 236 232 547 436 1001 656 520 252
1194 494 1941 698 1724 471 3969 805 6354 946 354 21 553 32 620 33 l55 2 60
-102z m535 -835 c111 -165 469 -639 640 -848 250 -305 642 -757 760 -875 67
-68 120 -90 216 -90 142 1 160 15 472 370 460 524 823 980 1122 1408 l92 133
82 -6 c44 -3 212 -12 371 -20 2737 -143 5101 -575 6311 -1155 289 -138 458
-247 610 -393 75 -71 102 -105 130 -163 33 -67 36 -79 31 -133 -20 -226 -392
-508 -1011 -765 -1292 -538 -3680 -939 -6316 -1061 -3083 -142 -6213 67 -8440
565 -901 202 -1599 435 -2075 693 -387 210 -611 438 -592 603 11 97 100 220
251 343 316 258 941 527 1732 745 1253 346 2961 596 4824 706 313 18 617 35
695 38 27 1 36 -8 95 -95z m-10310 -3633 c888 -534 2321 -1009 4100 -1359 202
-40 748 -139 885 -160 39 -7 138 -23 220 -36 747 -121 1908 -260 2720 -325 72
-6 213 -17 315 -25 707 -57 1413 -93 2340 -121 445 -13 766 -15 1620 -11 990
5 1200 10 1845 37 520 22 1396 77 1855 116 1282 108 2623 285 3625 480 447 86
607 119 855 175 1142 258 2033 537 2795 874 285 127 680 338 853 457 24 17 46
27 49 24 4 -3 -24 -88 -62 -189 -396 -1061 -1026 -2132 -1784 -3032 -1054
-1252 -2415 -2306 -4002 -3100 -883 -442 -1707 -767 -2789 -1099 -857 -263
-2009 -519 -3048 -677 -419 -63 -467 -69 -529 -59 -32 5 -166 26 -298 45
-1566 232 -3011 597 -4365 1103 -1220 455 -2427 1090 -3410 1794 -872 624
-1670 1377 -2327 2195 -603 749 -1139 1656 -1502 2535 -71 172 -181 463 -181
478 0 13 -10 19 220 -120z"/>
</g>
</svg>
