<?xml version="1.0" standalone="no"?>
<!DOCTYPE svg PUBLIC "-//W3C//DTD SVG 20010904//EN"
 "http://www.w3.org/TR/2001/REC-SVG-20010904/DTD/svg10.dtd">
<svg version="1.0" xmlns="http://www.w3.org/2000/svg"
 width="3375.000000pt" height="4219.000000pt" viewBox="0 0 3375.000000 4219.000000"
 preserveAspectRatio="xMidYMid meet">

<g transform="translate(0.000000,4219.000000) scale(0.100000,-0.100000)"
fill="#000000" stroke="none">
<path d="M12403 30438 c-486 -749 -956 -1626 -1293 -2413 -161 -376 -295 -724
-283 -736 4 -4 67 -28 138 -54 767 -276 1576 -650 2240 -1035 l151 -87 49 96
c78 148 272 490 379 665 370 603 768 1158 1258 1754 94 114 108 135 97 148
-40 48 -567 458 -854 664 -511 368 -1203 801 -1696 1064 l-107 57 -79 -123z"/>
<path d="M16873 29843 c-299 -273 -821 -812 -1152 -1188 -838 -954 -1580
-2051 -2053 -3035 -795 -1651 -1055 -3171 -808 -4707 132 -816 380 -1584 788
-2438 661 -1386 1741 -2839 3026 -4074 110 -106 231 -220 267 -252 l66 -59 79
72 c401 362 967 950 1359 1413 1118 1318 1927 2680 2377 4005 453 1337 541
2618 267 3920 -384 1827 -1482 3759 -3150 5545 -283 303 -907 915 -932 915 -3
0 -64 -53 -134 -117z"/>
<path d="M21815 29797 c-465 -238 -855 -461 -1305 -745 -439 -277 -1198 -817
-1192 -847 1 -5 58 -84 126 -175 379 -505 739 -1053 1011 -1540 54 -96 109
-194 122 -218 l25 -43 25 17 c52 33 452 248 613 329 589 294 1278 579 1939
803 78 26 141 51 141 55 0 13 -159 394 -266 636 -131 297 -454 944 -625 1251
-186 336 -342 594 -360 597 -8 2 -122 -53 -254 -120z"/>
<path d="M25445 27459 c-311 -58 -871 -190 -1215 -285 -1147 -317 -2216 -740
-3125 -1237 -286 -156 -276 -150 -271 -167 2 -8 49 -114 104 -235 640 -1419
904 -2833 779 -4172 -7 -73 -12 -133 -11 -133 1 0 58 33 126 73 1166 695 2540
1066 4090 1104 l256 6 6 66 c26 275 34 1047 16 1422 -46 943 -156 1770 -355
2679 -98 447 -220 911 -239 909 -6 -1 -78 -14 -161 -30z"/>
<path d="M8125 27467 c-11 -32 -59 -212 -104 -392 -284 -1137 -438 -2240 -471
-3385 -12 -418 1 -1033 26 -1236 l5 -41 262 -6 c1662 -42 3128 -468 4346
-1264 l144 -94 -7 58 c-70 587 -73 1182 -10 1743 97 865 339 1730 731 2617 47
107 84 196 82 198 -11 10 -327 190 -484 275 -1213 657 -2701 1182 -4180 1475
-356 70 -335 67 -340 52z"/>
<path d="M7105 21903 c-327 -9 -919 -64 -1323 -123 -1017 -149 -2015 -399
-3025 -759 -232 -83 -588 -220 -601 -231 -4 -5 -4 -23 2 -42 6 -18 38 -123 73
-233 117 -378 321 -938 485 -1327 726 -1731 1643 -3150 2720 -4208 1439 -1414
3085 -2106 5204 -2191 1774 -71 3755 305 5768 1093 29 12 51 22 50 24 -2 2
-165 167 -363 366 -545 549 -921 973 -1346 1518 -1043 1338 -1785 2730 -2168
4070 -25 87 -91 348 -115 452 -4 19 -42 53 -138 126 -1203 902 -2590 1377
-4278 1462 -172 9 -692 11 -945 3z"/>
<path d="M25675 21900 c-1061 -60 -2013 -275 -2852 -646 -373 -165 -804 -405
-1127 -629 l-92 -64 -42 -190 c-334 -1509 -1103 -3046 -2281 -4561 -483 -621
-986 -1178 -1618 -1791 l-192 -185 217 -81 c1178 -439 2424 -746 3602 -887
1042 -126 2107 -111 3004 40 1329 224 2439 724 3461 1559 385 314 829 755
1176 1165 942 1117 1754 2548 2341 4130 128 343 338 978 338 1018 0 14 -22 24
-230 104 -917 355 -1935 642 -2880 813 -518 93 -940 146 -1505 190 -238 19
-1080 28 -1320 15z"/>
</g>
</svg>
