<?xml version="1.0" standalone="no"?>
<!DOCTYPE svg PUBLIC "-//W3C//DTD SVG 20010904//EN"
 "http://www.w3.org/TR/2001/REC-SVG-20010904/DTD/svg10.dtd">
<svg version="1.0" xmlns="http://www.w3.org/2000/svg"
 width="3375.000000pt" height="4219.000000pt" viewBox="0 0 3375.000000 4219.000000"
 preserveAspectRatio="xMidYMid meet">

<g transform="translate(0.000000,4219.000000) scale(0.100000,-0.100000)"
fill="#000000" stroke="none">
<path d="M16460 35009 c-727 -21 -1412 -96 -2140 -235 -1989 -380 -3881 -1214
-5500 -2423 -926 -691 -1733 -1470 -2471 -2381 -731 -905 -1367 -1950 -1831
-3015 -602 -1382 -962 -2788 -1087 -4250 -41 -471 -46 -603 -46 -1175 0 -554
5 -694 41 -1135 118 -1464 479 -2899 1069 -4255 95 -218 106 -243 231 -501
1042 -2161 2670 -4023 4699 -5376 485 -323 1175 -711 1695 -954 2191 -1021
4492 -1432 6915 -1233 1327 108 2661 428 3920 939 1007 409 2000 961 2850
1584 554 407 988 772 1460 1230 1576 1530 2739 3380 3422 5441 378 1142 581
2213 665 3510 17 259 17 1180 0 1455 -79 1296 -286 2394 -666 3538 -261 784
-612 1583 -1010 2300 -1040 1871 -2515 3473 -4302 4669 -1415 948 -2987 1614
-4649 1972 -830 178 -1600 270 -2485 296 -372 11 -383 11 -780 -1z m845 -1069
c1644 -55 3247 -435 4750 -1125 1744 -801 3309 -2026 4522 -3540 1430 -1785
2339 -3934 2622 -6195 70 -556 95 -992 96 -1630 0 -483 -5 -605 -41 -1020
-172 -2004 -853 -3977 -1958 -5670 -811 -1243 -1803 -2301 -3001 -3200 -1509
-1132 -3314 -1924 -5152 -2259 -791 -144 -1464 -205 -2273 -205 -811 0 -1512
64 -2300 210 -891 164 -1859 465 -2710 841 -387 172 -932 454 -1320 683 -1633
966 -3074 2354 -4107 3955 -847 1313 -1439 2766 -1742 4280 -107 535 -173
1028 -217 1622 -21 286 -30 1181 -15 1468 91 1713 510 3325 1261 4840 310 627
590 1100 979 1655 1209 1725 2880 3148 4766 4057 549 265 983 440 1565 631
1355 446 2814 652 4275 602z"/>
<path d="M16800 28690 c-115 -16 -254 -90 -325 -173 -46 -53 -87 -127 -111
-197 -18 -53 -19 -160 -19 -3480 l0 -3425 23 -64 c27 -74 76 -154 124 -202 46
-46 6159 -5006 6217 -5045 162 -108 350 -120 527 -35 134 64 220 158 270 297
64 175 25 389 -95 525 -22 25 -1381 1134 -3020 2465 l-2981 2419 0 3205 c0
2105 -4 3227 -10 3270 -15 96 -79 219 -150 289 -119 117 -287 173 -450 151z"/>
</g>
</svg>
